<svg width="700" height="700" xmlns="http://www.w3.org/2000/svg" style="vector-effect: non-scaling-stroke;" stroke="null">

 <g stroke="null">
  <path stroke="null" id="svg_1" fill-rule="nonzero" fill="rgb(20.399475%,14.099121%,0%)" d="m0,326.721716c72.800622,0 83.056348,-34.249781 83.056348,-64.991902c0,-24.591198 -4.104792,-49.178216 -8.201235,-73.773583c-4.104803,-24.591198 -8.205415,-48.309653 -8.205415,-72.896671c0,-80.801419 61.521829,-115.059559 148.6788,-115.059559l21.530339,0l0,48.305473l-18.461141,0c-60.490415,0 -80.997688,28.107206 -80.997688,75.535767c0,20.202447 3.077557,41.281807 7.174,62.356986c4.104792,21.956271 7.178169,43.035631 7.178169,66.749917c1.023066,56.210232 -27.681273,84.313258 -73.827867,94.852932l0,1.758015c46.146594,9.662762 74.850933,39.523792 73.827867,95.734024c0,23.714286 -3.073377,45.670557 -7.178169,66.754097c-4.096443,21.952092 -7.174,42.154539 -7.174,63.233898c0,49.186565 23.58483,76.412679 80.997688,76.412679l18.461141,0l0,48.301294l-21.530339,0c-85.110839,0 -148.6788,-31.614865 -148.6788,-120.325222c0,-23.710106 4.100612,-48.305473 8.205415,-72.019759c4.096443,-23.710095 8.201235,-47.424381 8.201235,-71.138657c0,-27.226114 -10.255726,-64.991913 -83.056348,-64.991913l0,-44.797814zm0,0"/>
  <path stroke="null" id="svg_2" fill-rule="nonzero" fill="rgb(20.399475%,14.099121%,0%)" d="m699.999981,371.51953c-72.796452,0 -83.047999,37.765799 -83.047999,64.991913c0,23.710106 4.096443,47.428561 8.197066,71.138657c4.100623,23.714286 8.201235,48.309653 8.201235,72.019759c0,88.710357 -64.595207,120.325222 -148.670441,120.325222l-21.534529,0l0,-48.301294l17.429727,0c57.421217,-0.881092 82.033282,-27.226114 82.033282,-76.412679c0,-21.079359 -4.104792,-41.281807 -7.182349,-63.233898c-4.100612,-21.083539 -8.201235,-43.039811 -8.201235,-66.754097c0,-56.210232 28.704339,-86.071262 73.823687,-95.734024l0,-1.753835c-45.119349,-10.543854 -73.823687,-38.64688 -73.823687,-94.857112c0,-23.710106 4.100623,-44.793645 8.201235,-66.749917c3.077557,-21.07518 7.182349,-42.154539 7.182349,-62.356986c0,-47.428561 -21.534519,-74.654675 -81.006036,-75.535767l-18.456972,0l0,-48.305473l20.507284,0c87.156971,0 149.697686,34.25814 149.697686,115.05539c0,24.591187 -4.100612,48.309642 -8.201235,72.90084c-4.100623,24.595367 -8.197066,49.182385 -8.197066,73.773583c0,30.742122 10.251547,64.991902 83.047999,64.991902l0,44.797814zm0,0"/>
  <path stroke="null" id="svg_3" fill-rule="nonzero" fill="rgb(100%,65.899658%,0%)" d="m406.665381,100.402564l-113.330782,0c-18.097852,0 -32.771556,-12.569119 -32.771556,-28.073799c0,-15.504691 14.673704,-28.073799 32.771556,-28.073799l113.330782,0c18.102032,0 32.771556,12.569108 32.771556,28.073799c0,15.504681 -14.669524,28.073799 -32.771556,28.073799"/>
  <path stroke="null" id="svg_4" fill-rule="nonzero" fill="rgb(100%,65.899658%,0%)" d="m446.986755,192.854424l-193.973529,0c-18.097852,0 -32.771556,-12.564928 -32.771556,-28.073799c0,-15.504681 14.673704,-28.06962 32.771556,-28.06962l193.973529,0c18.097852,0 32.771556,12.564939 32.771556,28.06962c0,15.508871 -14.673704,28.073799 -32.771556,28.073799"/>
  <path stroke="null" id="svg_5" fill-rule="nonzero" fill="rgb(100%,65.899658%,0%)" d="m485.612768,285.306295l-271.229725,0c-18.097852,0 -32.771556,-12.564939 -32.771556,-28.06963c0,-15.504681 14.673704,-28.073789 32.771556,-28.073789l271.229725,0c18.102021,0 32.775725,12.569108 32.775725,28.073789c0,15.504691 -14.673704,28.06963 -32.775725,28.06963"/>
  <path stroke="null" id="svg_6" fill-rule="nonzero" fill="rgb(100%,65.899658%,0%)" d="m506.061577,377.762335l-312.123174,0c-18.097852,0 -32.771556,-12.564939 -32.771556,-28.073799c0,-15.504691 14.673704,-28.06962 32.771556,-28.06962l312.123174,0c18.102032,0 32.771556,12.564928 32.771556,28.06962c0,15.50886 -14.669524,28.073799 -32.771556,28.073799"/>
  <path stroke="null" id="svg_7" fill-rule="nonzero" fill="rgb(100%,65.899658%,0%)" d="m406.665381,655.735947l-113.330782,0c-18.097852,0 -32.771556,-12.564939 -32.771556,-28.06962c0,-15.504691 14.673704,-28.073799 32.771556,-28.073799l113.330782,0c18.102032,0 32.771556,12.569108 32.771556,28.073799c0,15.504681 -14.669524,28.06962 -32.771556,28.06962"/>
  <path stroke="null" id="svg_8" fill-rule="nonzero" fill="rgb(100%,65.899658%,0%)" d="m446.986755,563.284076l-193.973529,0c-18.097852,0 -32.771556,-12.564928 -32.771556,-28.073799c0,-15.504681 14.673704,-28.06962 32.771556,-28.06962l193.973529,0c18.097852,0 32.771556,12.564939 32.771556,28.06962c0,15.508871 -14.673704,28.073799 -32.771556,28.073799"/>
  <path stroke="null" id="svg_9" fill-rule="nonzero" fill="rgb(100%,65.899658%,0%)" d="m485.612768,470.832216l-271.229725,0c-18.097852,0 -32.771556,-12.569108 -32.771556,-28.073799c0,-15.504691 14.673704,-28.073799 32.771556,-28.073799l271.229725,0c18.102021,0 32.775725,12.569108 32.775725,28.073799c0,15.504691 -14.673704,28.073799 -32.775725,28.073799"/>
  <path stroke="null" id="svg_10" fill-rule="nonzero" fill="rgb(20.399475%,14.099121%,0%)" d="m414.29872,442.758417c0,15.504691 -14.673704,28.073799 -32.771556,28.073799c-18.102032,0 -32.771556,-12.569108 -32.771556,-28.073799c0,-15.504691 14.669524,-28.073799 32.771556,-28.073799c18.097852,0 32.771556,12.569108 32.771556,28.073799"/>
 </g>
</svg>
