<?xml version="1.0" encoding="utf-8"?>
<!-- Generator: Adobe Illustrator 21.0.0, SVG Export Plug-In . SVG Version: 6.00 Build 0)  -->
<svg version="1.1" id="Layer_1" xmlns="http://www.w3.org/2000/svg" xmlns:xlink="http://www.w3.org/1999/xlink" x="0px" y="0px"
	 viewBox="0 0 48.9 48.9" style="enable-background:new 0 0 48.9 48.9;" xml:space="preserve">
<style type="text/css">
	.st0{fill:#6671e5;}
</style>
<title>Asset 4</title>
<path class="st0" d="M24.3,0.1C10.9,0.1,0,11,0,24.5s10.9,24.3,24.3,24.3s24.3-10.9,24.3-24.3C48.6,11,37.8,0.2,24.3,0.1z
	 M24.3,45.4c-1.9,0-3.8-0.2-5.6-0.8V22.1l18.7,18.6C33.7,43.7,29,45.4,24.3,45.4L24.3,45.4z M5,33.3l9.9-10v20
	C10.5,41.3,7,37.7,5,33.3z M24.3,3.5c1.7,0,3.5,0.2,5.1,0.6L18.6,15V4.3C20.5,3.8,22.4,3.5,24.3,3.5z M45.3,24.5
	c0,5.2-1.9,10.2-5.4,14.1l-19.9-20L33,5.4C40.5,8.8,45.3,16.3,45.3,24.5z M14.9,13.9l-5-5c1.4-1.4,3.1-2.6,5-3.4V13.9z M3.4,24.5
	c0-4.7,1.6-9.3,4.6-13.1l7.2,7.2L4.1,29.9C3.6,28.1,3.4,26.3,3.4,24.5z"/>
</svg>
